<?xml version="1.0" encoding="UTF-8" standalone="no"?>
<!-- Created with Inkscape (http://www.inkscape.org/) -->

<svg
   width="132.29164mm"
   height="72.24707mm"
   viewBox="0 0 132.29164 72.24707"
   version="1.1"
   id="svg5"
   sodipodi:docname="welcome.svg"
   inkscape:version="1.3 (1:1.3+202307231459+0e150ed6c4)"
   xmlns:inkscape="http://www.inkscape.org/namespaces/inkscape"
   xmlns:sodipodi="http://sodipodi.sourceforge.net/DTD/sodipodi-0.dtd"
   xmlns="http://www.w3.org/2000/svg"
   xmlns:svg="http://www.w3.org/2000/svg">
  <sodipodi:namedview
     id="namedview13"
     pagecolor="#ffffff"
     bordercolor="#666666"
     borderopacity="1.0"
     inkscape:showpageshadow="2"
     inkscape:pageopacity="0.0"
     inkscape:pagecheckerboard="0"
     inkscape:deskcolor="#d1d1d1"
     inkscape:document-units="mm"
     showgrid="false"
     inkscape:zoom="1.0327408"
     inkscape:cx="290.48915"
     inkscape:cy="158.80074"
     inkscape:window-width="1850"
     inkscape:window-height="1016"
     inkscape:window-x="0"
     inkscape:window-y="0"
     inkscape:window-maximized="1"
     inkscape:current-layer="svg5" />
  <defs
     id="defs2" />
  <g
     id="layer1"
     transform="translate(215.33971,-67.462889)"
     style="fill:#ffffff">
    <g
       aria-label="Welcome"
       id="text113-7"
       style="font-size:60.0739px;line-height:1.25;font-family:aakar;-inkscape-font-specification:aakar;letter-spacing:0px;word-spacing:0px;stroke-width:1.25154;fill:#ffffff">
      <path
         d="m -188.96938,133.46204 q -0.93866,0 -1.61332,-0.64532 -0.67465,-0.61599 -1.17331,-1.58398 -0.46933,-0.96799 -0.79199,-2.11197 -0.29333,-1.11466 -0.46933,-2.11198 -0.67466,-4.48794 -0.82132,-8.91722 -0.11734,-4.45861 -0.11734,-8.79988 v -2.14131 q 0,-0.52799 0,-1.05599 0.0293,-0.55732 0.0293,-1.11465 l 0.0293,-5.045268 q 0,-1.349316 -0.0587,-2.5813 -0.0293,-1.261318 -0.088,-2.639967 v -0.05867 q -0.49867,1.231984 -0.87999,2.28797 -0.352,1.055987 -0.64533,1.994641 l -2.61063,8.682559 q -1.52532,5.10393 -3.25596,10.76519 -1.73064,5.63193 -4.07728,11.55719 -0.44,1.08532 -1.02666,2.4053 -0.55732,1.34932 -1.26131,2.52264 -0.70399,1.17331 -1.55465,1.9653 -0.82132,0.82133 -1.73064,0.82133 -0.99732,0 -1.64265,-0.96799 -0.64532,-0.93866 -1.05599,-2.31731 -0.41066,-1.34931 -0.61599,-2.84529 -0.23466,-1.49598 -0.35199,-2.5813 -0.38133,-3.25596 -0.46933,-6.65858 -0.11733,-3.40263 -0.11733,-7.03991 0,-2.8453 0.088,-5.8666 0.088,-3.02129 0.26399,-6.10125 0.176,-3.07996 0.44,-6.159922 0.26399,-3.079961 0.61599,-6.042589 0.088,-0.58666 0.264,-1.642646 0.17599,-1.085319 0.41066,-2.346637 0.26399,-1.29065 0.55732,-2.639966 0.32267,-1.349316 0.70399,-2.463968 0.38133,-1.143986 0.82133,-1.935976 0.43999,-0.79199 0.93865,-0.967987 0,0.088 -0.0587,0.469327 -0.0293,0.381329 -0.11734,0.997321 -0.088,0.586659 -0.20533,1.319983 -0.11733,0.733324 -0.23466,1.525314 l -1.23198,7.890565 q -0.32267,2.815964 -0.58666,5.866592 -0.264,3.021299 -0.46933,6.101259 -0.176,3.07996 -0.29333,6.13058 -0.088,3.05063 -0.088,5.89593 0,3.37329 0.0587,6.77591 0.088,3.37329 0.46932,6.74658 0.0293,0.32267 0.11734,0.90932 0.088,0.58666 0.20533,1.31999 0.11733,0.73332 0.26399,1.52531 0.176,0.79199 0.38133,1.49598 0.20533,0.70399 0.44,1.23199 0.23466,0.55732 0.52799,0.76265 0.55733,-0.41066 1.14398,-1.29065 0.58666,-0.85065 1.11466,-1.84797 0.52799,-0.99732 0.93865,-1.96531 0.44,-0.93866 0.67466,-1.52532 1.26132,-3.19729 2.37597,-6.51191 1.14398,-3.31463 2.17064,-6.68792 l 2.05331,-6.71724 q 0.85065,-2.90397 1.73064,-5.7786 0.87999,-2.87463 1.81864,-5.719923 0.264,-0.850656 0.616,-1.906643 0.35199,-1.055986 0.76265,-1.965308 0.41066,-0.938654 0.87999,-1.554647 0.49866,-0.615992 1.05599,-0.615992 0.49866,0 0.79199,0.469328 0.32266,0.439994 0.49866,1.202651 0.176,0.733324 0.23466,1.701312 0.0587,0.967987 0.0587,1.965308 0,1.319983 -0.0587,2.5813 -0.0293,1.231984 -0.0293,2.053304 l -0.088,11.64519 0.088,2.0533 q 0.0587,2.81597 0.176,5.6026 0.11733,2.7573 0.58666,5.5146 0.088,0.49866 0.26399,1.37864 0.20533,0.90933 0.49866,1.75998 0.32266,0.87999 0.70399,1.52532 0.41066,0.64532 0.93866,0.64532 0.82132,0 1.67198,-1.08532 0.85065,-1.05598 1.70131,-2.87463 0.87999,-1.78931 1.73064,-4.16528 0.85066,-2.37597 1.64265,-4.9866 0.79199,-2.61063 1.49598,-5.2506 0.73332,-2.6693 1.31998,-5.04527 0.58666,-2.4053 1.02666,-4.34128 0.43999,-1.93597 0.70399,-3.10929 0.70399,-3.285292 1.43731,-6.981245 0.76266,-3.695953 1.40798,-7.479904 0.67466,-3.783952 1.14399,-7.509237 0.49866,-3.754619 0.70399,-7.157242 0,-0.117332 0,-0.263997 0.0293,-0.146665 0.0293,-0.263997 v -0.469327 q 0,-0.146665 -0.0293,-0.234664 0,-0.117331 0,-0.263996 v -0.557326 l 0.32266,-0.02933 q 0.14667,0.586659 0.176,1.202651 0.0587,0.615992 0.0587,1.202651 v 0.997321 q 0,1.349316 -0.11734,2.698632 -0.11733,1.349316 -0.23466,2.698632 0,0.146665 -0.0587,0.322663 -0.0293,0.175997 -0.0293,0.322662 -0.23466,2.229305 -0.64532,5.133268 -0.41066,2.903963 -0.96799,6.218587 -0.52799,3.285291 -1.23198,6.863912 -0.67466,3.578619 -1.46665,7.186579 -0.79199,3.60795 -1.70131,7.1279 -0.87999,3.49063 -1.84798,6.65859 -0.93866,3.16796 -1.93598,5.86659 -0.99732,2.69863 -2.0533,4.66394 -1.02666,1.99464 -2.08264,3.13862 -1.05599,1.14399 -2.08264,1.17332 z"
         style="font-family:'Stay Classy SLDT';-inkscape-font-specification:'Stay Classy SLDT';fill:#ffffff"
         id="path173" />
      <path
         d="m -167.05766,104.39308 q 0.43999,0.0293 0.96798,0.176 0.528,0.11733 0.99733,0.46933 0.46932,0.32266 0.76265,0.90932 0.32266,0.58666 0.32266,1.49598 0,1.17332 -0.55732,2.17064 -0.55733,0.96799 -1.37865,1.75998 -0.79199,0.76265 -1.73065,1.34931 -0.93865,0.58666 -1.70131,0.96799 -0.17599,0.088 -0.52799,0.20533 -0.352,0.11733 -0.76266,0.23466 -0.38133,0.088 -0.79199,0.14667 -0.41066,0.0587 -0.76265,0.0587 -0.088,0 -0.20533,0 -0.088,0 -0.176,-0.0587 -0.088,0.67466 -0.14667,1.23198 -0.0587,0.55733 -0.0587,1.17332 0,1.58398 0.41066,2.4933 0.41066,0.90932 1.37865,0.96799 1.08532,0 2.17064,-0.58666 1.11465,-0.61599 2.1413,-1.52531 1.02666,-0.90932 1.90664,-1.96531 0.87999,-1.05599 1.49599,-1.96531 v 0.0293 l 2.52263,-4.5466 q 0.20533,-2.78664 0.55733,-6.07193 0.35199,-3.28529 0.82132,-6.746578 0.49866,-3.490622 1.11465,-7.039909 0.61599,-3.549288 1.34932,-6.893246 0.73332,-3.37329 1.58398,-6.365252 0.85065,-2.991961 1.78931,-5.367931 0.20533,-0.527993 0.52799,-1.143985 0.32266,-0.615992 0.73332,-1.173319 0.41067,-0.557326 0.90933,-0.938654 0.49866,-0.381329 1.05598,-0.381329 0.82133,0.05867 1.34932,0.498661 0.55733,0.439994 0.87999,1.143985 0.32266,0.703991 0.43999,1.642646 0.14667,0.938654 0.14667,1.994641 0,0.146665 0,0.293329 0,0.117332 -0.0293,0.263997 v -0.02933 q -0.14666,2.229305 -0.61599,4.898604 -0.46933,2.639966 -1.14398,5.485263 -0.67466,2.845297 -1.52532,5.74926 -0.82132,2.87463 -1.70131,5.602595 -0.87999,2.727965 -1.75998,5.133265 -0.85065,2.40531 -1.61331,4.25328 l -0.20533,0.41066 q -0.23466,0.528 -0.64532,1.46665 -0.38133,0.93866 -0.87999,1.93598 -0.46933,0.96798 -0.99732,1.81864 -0.49866,0.85066 -0.93866,1.20265 -0.14666,2.37597 -0.264,4.72261 -0.11733,2.34663 -0.11733,4.7226 0,2.4933 0.176,4.89861 0.0293,0.87999 0.11733,2.25864 0.088,1.37864 0.32266,2.90396 0.23467,1.52531 0.64533,3.07996 0.41066,1.55465 1.05599,2.78663 0.67465,1.23198 1.64264,1.99464 0.99732,0.79199 2.37597,0.79199 l 0.0293,0.29333 q -0.14666,0.0293 -0.32266,0.0293 -0.14666,0 -0.35199,0 -1.55465,0 -2.63997,-0.96798 -1.05599,-0.96799 -1.75998,-2.43464 -0.70399,-1.43731 -1.11465,-3.13863 -0.41066,-1.67198 -0.64532,-3.13862 -0.46933,-2.7573 -0.58666,-5.54393 -0.11734,-2.78663 -0.11734,-5.6026 0,-3.46129 0.176,-6.95191 -0.0293,0 -0.0587,0 0,-0.0293 -0.0293,-0.0293 -0.70399,1.61331 -1.75997,3.31462 -1.05599,1.70131 -2.37597,3.13863 -1.29065,1.40798 -2.78663,2.37597 -1.46665,0.96799 -2.96263,1.14398 -0.79199,-0.0293 -1.43732,-0.43999 -0.61599,-0.41066 -1.02665,-1.11465 -0.41066,-0.70399 -0.61599,-1.64265 -0.23467,-0.93865 -0.23467,-1.99464 0,-1.23198 0.23467,-2.5813 0.23466,-1.34932 0.67465,-2.6693 0.44,-1.31998 1.05599,-2.52263 0.64533,-1.23199 1.43732,-2.17064 0.79199,-0.96799 1.73064,-1.58398 0.93865,-0.61599 2.02397,-0.76266 z m 17.95177,-32.119588 q 0,-0.381328 -0.0587,-0.879988 -0.0293,-0.498661 -0.176,-0.938655 -0.14666,-0.439994 -0.41066,-0.733324 -0.23466,-0.322662 -0.61599,-0.322662 -0.23466,0 -0.52799,0.322662 -0.264,0.322663 -0.528,0.762657 -0.26399,0.439994 -0.46932,0.879989 -0.20533,0.439994 -0.32267,0.674658 -0.99732,2.258638 -1.84797,5.103934 -0.82133,2.845297 -1.55465,6.013257 -0.70399,3.167959 -1.31998,6.54125 -0.58666,3.343957 -1.05599,6.599915 -0.43999,3.255959 -0.79199,6.306585 -0.35199,3.0213 -0.55733,5.54393 l 0.14667,0.0293 1.14398,-3.07996 v 0.0293 l 0.49867,-1.29065 q 0.0587,-0.176 0.088,-0.264 0.0587,-0.11733 0.0587,-0.20533 0.85066,-2.02398 1.73064,-4.429279 0.90933,-2.405302 1.78932,-5.015935 0.87998,-2.610634 1.67197,-5.338599 0.82133,-2.757298 1.43732,-5.426597 0.64532,-2.698632 1.08532,-5.221267 0.43999,-2.551967 0.58666,-4.781272 z m -17.92244,34.055568 q -0.87999,0.14666 -1.73064,0.90932 -0.85066,0.73332 -1.58398,1.75998 -0.704,0.99732 -1.26132,2.17063 -0.52799,1.14399 -0.82132,2.11198 0.49866,-0.0293 1.20265,-0.32266 0.70399,-0.32267 1.43731,-0.82133 0.76266,-0.49866 1.49598,-1.11465 0.76266,-0.61599 1.34932,-1.26132 0.58666,-0.64532 0.93865,-1.26131 0.38133,-0.616 0.38133,-1.11466 0,-0.35199 -0.176,-0.52799 -0.14666,-0.20533 -0.38132,-0.32266 -0.20534,-0.11733 -0.46933,-0.14667 -0.23467,-0.0587 -0.38133,-0.0587 z"
         style="font-family:'Stay Classy SLDT';-inkscape-font-specification:'Stay Classy SLDT';fill:#ffffff"
         id="path175" />
      <path
         d="m -142.59398,109.61435 q 0,0.23466 -0.0587,0.67466 -0.0587,0.41066 -0.176,0.85065 -0.11733,0.41066 -0.32266,0.73333 -0.176,0.32266 -0.44,0.35199 -0.176,-0.264 -0.32266,-0.87999 -0.14667,-0.61599 -0.20533,-1.11465 l -0.0587,-0.49866 v 0.0293 q -0.0587,-0.26399 -0.14666,-0.58666 -0.0587,-0.32266 -0.23467,-0.58666 -0.14666,-0.29332 -0.43999,-0.46932 -0.264,-0.20533 -0.67466,-0.23467 -0.76265,0.11734 -1.49598,0.67466 -0.70399,0.52799 -1.34931,1.34932 -0.616,0.82132 -1.14399,1.87731 -0.49866,1.02665 -0.87999,2.11197 -0.38133,1.05599 -0.61599,2.11197 -0.20533,1.05599 -0.23466,1.90665 0,1.17331 0.17599,1.9653 0.176,0.76266 0.49866,1.26132 0.352,0.46933 0.85066,0.67466 0.49866,0.20533 1.11465,0.20533 1.05599,-0.0293 2.19997,-0.43999 1.14399,-0.41067 2.22931,-1.02666 1.11465,-0.64532 2.1413,-1.37865 1.05599,-0.73332 1.90665,-1.43731 l 1.70131,-1.67198 q 0.64532,-0.67466 1.46665,-1.52531 0.85065,-0.85066 1.64264,-1.58398 0.79199,-0.76266 1.34932,-1.29065 0.58666,-0.528 0.70399,-0.616 0.11733,0.23467 0.11733,0.29333 0.0293,0.0587 0.0293,0.088 0,0.38133 -0.43999,1.05599 -0.41066,0.67466 -1.08532,1.46665 -0.64533,0.79199 -1.40798,1.64264 -0.76266,0.85066 -1.46665,1.55465 -0.67466,0.70399 -1.20265,1.20265 -0.49866,0.49866 -0.61599,0.61599 -0.90933,0.79199 -2.02398,1.61331 -1.11465,0.82133 -2.34663,1.52532 -1.20266,0.67466 -2.46397,1.14398 -1.23199,0.46933 -2.37597,0.58666 -1.75998,-0.0587 -2.87463,-1.26131 -1.11465,-1.23199 -1.29065,-3.81329 l -0.0587,-0.90932 q 0.11733,-1.70131 0.70399,-3.69595 0.58666,-2.02398 1.52532,-3.78395 0.93865,-1.78932 2.17064,-3.05063 1.26131,-1.26132 2.72796,-1.46665 1.46665,0.088 2.3173,1.08532 0.87999,0.99732 0.87999,2.46397 v 0.20533 z"
         style="font-family:'Stay Classy SLDT';-inkscape-font-specification:'Stay Classy SLDT';fill:#ffffff"
         id="path177" />
      <path
         d="m -102.64249,110.67033 q 0,-0.41066 -0.0293,-0.76265 0,-0.38133 -0.11733,-0.85066 -0.43999,0.11733 -0.85066,0.58666 -0.38132,0.44 -0.73332,1.05599 -0.352,0.61599 -0.67466,1.31998 -0.29333,0.70399 -0.55732,1.31998 l -0.29333,0.64533 -0.93866,2.08264 q -0.38133,0.85065 -0.76266,1.67198 -0.38132,0.82132 -0.79198,1.46665 -0.41067,0.64532 -0.90933,1.05598 -0.49866,0.38133 -1.14398,0.38133 -0.352,-0.0293 -0.55733,-0.29333 -0.20533,-0.29333 -0.32266,-0.64532 -0.088,-0.38133 -0.14667,-0.79199 -0.0293,-0.41067 -0.0293,-0.73333 0,-1.37865 0.088,-2.6693 0.11733,-1.31998 0.23466,-2.63996 0.14667,-1.31999 0.264,-2.69864 0.11733,-1.37864 0.11733,-2.87463 v -0.99732 q 0,-0.49866 -0.0587,-0.93865 -0.0587,-0.44 -0.29333,-0.85066 -0.46933,0.088 -0.99732,0.82133 -0.528,0.70399 -1.02666,1.73064 -0.49866,1.02665 -0.99732,2.25864 -0.46932,1.20265 -0.87999,2.34664 -0.38132,1.14398 -0.67465,2.08264 -0.29333,0.90932 -0.44,1.34931 -0.32266,0.90932 -0.58666,1.90664 -0.23466,0.99732 -0.55732,2.05331 l -0.41067,1.37865 q -0.23466,0.79199 -0.49866,1.73064 -0.26399,0.93866 -0.55732,1.84798 -0.29333,0.93866 -0.58666,1.81864 -0.29333,0.87999 -0.58666,1.52532 -0.29333,0.67466 -0.55733,1.05598 -0.26399,0.41067 -0.49866,0.41067 h -0.14666 q -0.44,-0.20533 -0.52799,-0.44 l 0.0293,0.0293 q -0.20533,-0.29333 -0.20533,-0.64532 0.0587,-3.84262 0.26399,-7.8319 0.23467,-3.98928 0.55733,-7.86123 0,-0.11734 0.0293,-0.49866 0.0587,-0.38133 0.11733,-0.87999 0.0587,-0.49866 0.11734,-1.05599 0.088,-0.58666 0.20533,-1.14398 -0.90932,1.05598 -2.14131,2.08264 -1.20265,0.99732 -2.25864,1.64264 -0.0587,1.20265 -0.26399,2.61063 -0.20533,1.37865 -0.58666,2.78664 -0.38133,1.37864 -0.93866,2.69863 -0.52799,1.29065 -1.26131,2.34663 -0.73333,1.02666 -1.64265,1.67198 -0.90932,0.67466 -1.99464,0.79199 -1.08532,-0.0293 -1.84798,-0.76265 -0.73332,-0.73333 -1.20265,-1.81865 -0.43999,-1.08532 -0.64532,-2.3173 -0.20533,-1.26132 -0.20533,-2.28797 0,-1.37865 0.17599,-2.7573 0.176,-1.40798 0.49866,-2.69863 0.11734,-0.32266 0.32267,-0.85066 0.23466,-0.52799 0.49866,-1.02665 0.29333,-0.52799 0.64532,-0.87999 0.38133,-0.38133 0.79199,-0.38133 0.0587,0 0.11733,0.0293 0.11734,-0.93865 0.46933,-1.73064 0.38133,-0.82132 0.90932,-1.43731 0.528,-0.616 1.20265,-0.96799 0.67466,-0.352 1.40799,-0.38133 0.87998,0.088 1.49598,0.67466 0.64532,0.55732 1.05598,1.40798 0.44,0.82132 0.64533,1.87731 0.23466,1.02665 0.32266,2.05331 0.70399,-0.58666 1.46665,-1.17332 0.76266,-0.58666 1.43731,-1.17332 l 1.34932,-1.11465 q 0.32266,-0.23467 0.49866,-0.38133 0.176,-0.176 0.23466,-0.176 l 0.29333,-0.14666 q 0.32267,0.11733 0.38133,0.79199 0.088,0.67465 0.088,1.43731 0,0.52799 -0.0293,1.05599 -0.0293,0.52799 -0.0587,0.99732 -0.0293,0.46932 -0.0587,0.82132 -0.0293,0.32266 -0.0293,0.46933 -0.23466,2.4933 -0.38133,4.95727 -0.11733,2.46397 -0.26399,4.9866 0.0293,0 0.0293,0.0293 0.0293,0 0.0587,0 0.70399,-2.19997 1.26131,-4.13594 0.58666,-1.96531 1.14399,-3.81329 0.58666,-1.84797 1.20265,-3.60795 0.61599,-1.78931 1.40798,-3.60796 0.264,-0.61599 0.64533,-1.37865 0.41066,-0.79199 0.90932,-1.46664 0.49866,-0.70399 1.05599,-1.17332 0.58665,-0.46933 1.20265,-0.46933 0.70399,0 1.08532,0.49866 0.38132,0.46933 0.55732,1.17332 0.176,0.67466 0.20533,1.40798 0.0293,0.73333 0.0293,1.23199 0,1.02665 -0.11734,2.08264 -0.11733,1.05598 -0.11733,2.02397 l -0.52799,6.42392 q 0,0.176 -0.0293,0.41066 0,0.20533 0,0.49866 v 0.41066 q 0.82132,-0.99732 1.31998,-2.02397 0.52799,-1.05599 0.99732,-2.08264 l 0.46933,-1.08532 q 0,-0.088 0.176,-0.32267 h -0.0293 q 0.352,-0.76265 0.82133,-1.73064 0.46932,-0.99732 1.02665,-1.87731 0.55732,-0.87999 1.17332,-1.49598 0.61599,-0.61599 1.26131,-0.61599 0.44,0 0.704,0.26399 0.29332,0.23467 0.43999,0.616 0.14666,0.35199 0.20533,0.79199 0.0587,0.43999 0.0587,0.79199 0,1.11465 -0.11734,2.4053 -0.11733,1.29065 -0.26399,2.37597 l -0.58666,4.92794 q -0.088,0.82132 -0.14667,1.64264 -0.0587,0.79199 -0.0293,1.61331 v 0.264 q 0,0.46933 0,1.11465 0.0293,0.64533 0.14667,1.31999 0.14666,0.70399 0.43999,1.34931 0.29333,0.64533 0.85066,1.08532 -0.088,0.20533 -0.20533,0.23467 -0.088,0.0293 -0.23467,0.0293 -0.20533,-0.0293 -0.43999,-0.32266 -0.23467,-0.29333 -0.46933,-0.704 -0.20533,-0.41066 -0.38133,-0.85065 -0.14666,-0.44 -0.23466,-0.79199 -0.20533,-0.87999 -0.264,-1.75998 -0.0587,-0.87999 -0.0587,-1.81864 0,-1.75998 0.11733,-3.49062 0.14666,-1.75998 0.32266,-3.46129 l 0.32266,-3.1093 v -0.67465 q 0,-0.176 0,-0.352 0.0293,-0.176 0.0293,-0.352 z m -30.77027,2.63997 q -0.32266,1.05599 -0.49866,2.14131 -0.14666,1.08532 -0.14666,2.19997 0,0.11733 0,0.58666 0.0293,0.46933 0.088,1.11465 0.0587,0.61599 0.20533,1.31998 0.14666,0.67466 0.38132,1.26132 0.23467,0.58666 0.616,0.99732 0.38133,0.38133 0.90932,0.41066 0.79199,-0.088 1.46665,-0.61599 0.70399,-0.55733 1.26131,-1.40798 0.58666,-0.85066 1.02666,-1.90664 0.43999,-1.08532 0.76265,-2.19998 0.352,-1.11465 0.55733,-2.19997 0.20533,-1.11465 0.32266,-2.02397 -0.73332,0.29333 -1.46665,0.43999 -0.70399,0.11733 -1.34931,0.14667 -1.05599,-0.14667 -1.90664,-0.87999 -0.82133,-0.76266 -1.14399,-2.11197 l -0.35199,0.79199 q -0.14667,0.35199 -0.29333,0.64532 -0.14667,0.29333 -0.23467,0.52799 z m 2.22931,-3.93062 q 0,0.0587 -0.0293,0.088 -0.0293,0.0293 -0.0293,0.088 v 0.176 q 0,1.26132 0.76266,1.87731 0.76265,0.61599 1.64264,0.61599 0.58666,0 1.20265,-0.176 0.64533,-0.17599 1.29065,-0.43999 0,-0.64533 -0.0587,-1.49598 -0.0587,-0.85066 -0.29333,-1.61331 -0.20533,-0.79199 -0.64533,-1.34932 -0.41066,-0.58666 -1.14398,-0.67466 -0.96799,0.0587 -1.75998,0.87999 -0.79199,0.79199 -0.93865,2.02397 z"
         style="font-family:'Stay Classy SLDT';-inkscape-font-specification:'Stay Classy SLDT';fill:#ffffff"
         id="path179" />
      <path
         d="m -95.602579,120.55554 q 1.055986,0 2.199972,-0.41066 1.173318,-0.43999 2.28797,-1.08532 1.114653,-0.64532 2.141306,-1.40798 1.055987,-0.79199 1.87731,-1.49598 l 0.967987,-1.02666 q 0.263997,-0.35199 0.703991,-0.82132 0.439995,-0.49866 0.879989,-0.90932 0.439994,-0.43999 0.79199,-0.73332 0.381328,-0.29333 0.49866,-0.29333 l 0.146665,-0.264 q 0.05867,0.0587 0.05867,0.264 0,0.32266 -0.439994,0.99732 -0.410662,0.67465 -0.997321,1.40798 -0.557326,0.73332 -1.114652,1.40798 -0.557327,0.64533 -0.821323,0.93866 v 0.0293 q -0.879989,0.85065 -2.023974,1.75998 -1.114653,0.87998 -2.346637,1.64264 -1.202651,0.73333 -2.463968,1.23199 -1.231985,0.46932 -2.405303,0.46932 -1.026654,0 -1.935975,-0.46932 -0.909322,-0.46933 -1.525314,-1.58398 -0.410661,-0.76266 -0.527993,-1.73065 -0.146665,-0.96799 -0.205331,-1.75998 0,-1.23198 0.263997,-2.5813 0.234663,-1.34931 0.674658,-2.6693 0.439994,-1.31998 1.055986,-2.52263 0.645325,-1.23198 1.437315,-2.19997 0.79199,-0.96799 1.701312,-1.58398 0.938654,-0.61599 1.994641,-0.76266 0.410661,0.0293 0.938654,0.14667 0.557327,0.11733 1.026654,0.46932 0.469327,0.32267 0.79199,0.93866 0.322662,0.58666 0.322662,1.55465 0,1.08531 -0.469327,2.02397 -0.439994,0.93865 -1.173318,1.70131 -0.703991,0.73332 -1.613313,1.31998 -0.879989,0.58666 -1.759977,0.96799 -0.850656,0.38133 -1.613313,0.58666 -0.762657,0.20533 -1.202651,0.20533 -0.351996,0 -0.703991,-0.176 -0.088,0.67466 -0.175998,1.31999 -0.05867,0.61599 -0.088,1.23198 0.05867,0.79199 0.205331,1.49598 0.175997,0.70399 0.49866,1.23199 0.351995,0.52799 0.850656,0.85065 0.527993,0.29333 1.29065,0.29333 z m 2.962629,-14.22648 q -0.879989,0.11733 -1.701312,0.82132 -0.821323,0.67466 -1.495981,1.67198 -0.674658,0.96799 -1.202651,2.11197 -0.527993,1.14399 -0.879989,2.19997 0.439995,-0.088 1.08532,-0.38133 0.645325,-0.32266 1.349316,-0.76265 0.703991,-0.46933 1.407982,-1.02666 0.733324,-0.55732 1.319983,-1.17331 0.586659,-0.64533 0.967987,-1.26132 0.410662,-0.64533 0.527994,-1.23199 -0.088,-0.52799 -0.498661,-0.73332 -0.410661,-0.23466 -0.733324,-0.23466 z"
         style="font-family:'Stay Classy SLDT';-inkscape-font-specification:'Stay Classy SLDT';fill:#ffffff"
         id="path181" />
    </g>
  </g>
</svg>
